# xmcd
#
# Track frame offsets: 
#        150
#        14317
#        26400
#        38099
#        53536
#        65049
#        77790
#        89655
#        101093
#        113237
#        128147
#        142021
#        155215
#        167821
#        181908
#        195070
#        208505
#        222002
#        235537
#        250059
#        260723
#        273384
#        285976
#        298617
#
# Disc length: 4146 seconds
#
# Revision: 0
# Processed by: cddbd v1.5.1PL2 Copyright (c) Steve Scherf et al.
# Submitted via: ExactAudioCopy v0.95b1
#
DISCID=56103018
DTITLE=Bill Monroe and His Blue Grass Boys - Blue Moon Of Kentucky
DYEAR=1900
DGENRE=Bluegrass
TTITLE0=Dog House Blues
TTITLE1=Katy Hill
TTITLE2=Orange Blossom Special
TTITLE3=In The Pines
TTITLE4=Honky Tonk Swing
TTITLE5=Kentucky Waltz
TTITLE6=Rocky Road Blues
TTITLE7=Blue Grass Special
TTITLE8=Footprints In The Snow
TTITLE9=Mother's Only Sleeping
TTITLE10=Blue Moon Of Kentucky
TTITLE11=Heavy Traffic Ahead
TTITLE12=Toy Heart
TTITLE13=Blue Yodel No. 4
TTITLE14=Will You Be Loving Another Man
TTITLE15=Wicked Path Of Sin
TTITLE16=My Rose Of Old Kentucky
TTITLE17=I Hear A Sweet Voice Calling
TTITLE18=Little Cabin Home On The Hill
TTITLE19=Blue Grass Breakdown
TTITLE20=Sweetheart, You Done Me Wrong
TTITLE21=Little Community Church
TTITLE22=When You Are Lonely
TTITLE23=Molly And Tenbrooks (The Racehorse Song)
EXTD=
EXTT0=
EXTT1=
EXTT2=
EXTT3=
EXTT4=
EXTT5=
EXTT6=
EXTT7=
EXTT8=
EXTT9=
EXTT10=
EXTT11=
EXTT12=
EXTT13=
EXTT14=
EXTT15=
EXTT16=
EXTT17=
EXTT18=
EXTT19=
EXTT20=
EXTT21=
EXTT22=
EXTT23=
PLAYORDER=
